# xmcd
#
# Track frame offsets:
#	150
#	17175
#	40905
#	63873
#	88133
#	112783
#	136300
#	153498
#	173555
#	201933
#	223980
#	238675
#	267092
#	277627
#	290795
#	305215
#
# Disc length: 4362 seconds
#
# Revision: 1
# Processed by: cddbd v1.5.1PL2 Copyright (c) Steve Scherf et al.
# Submitted via: VUPlayer 2.42
#
DISCID=e9110810
DTITLE=Jimmy Scott - Holding Back The Years
DYEAR=2002
DGENRE=Vocal
TTITLE0=Brand New Heavies - Got To Give
TTITLE1=Jimmy Scott - What I Wouldn't Give
TTITLE2=Jimmy Scott - The Crying Game
TTITLE3=Jimmy Scott - Jealous Guy
TTITLE4=Jimmy Scott - Holding Back The Years
TTITLE5=Jimmy Scott - How Can I Go On
TTITLE6=Jimmy Scott - Almost Blue
TTITLE7=Jimmy Scott - Slave to Love
TTITLE8=Jimmy Scott - Nothing Compares 2 U
TTITLE9=Jimmy Scott - Sorry Seems To Be The Hardest Word
TTITLE10=Jimmy Scott - Don't Cry Baby
TTITLE11=Two Nice Girls - Feel (Like Making) Love
TTITLE12=Two Nice Girls - Bang Bang
TTITLE13=Two Nice Girls - Top Of The World
TTITLE14=Two Nice Girls - Cotton Crown
TTITLE15=Willie Nelson and Sinead O'Connor - Don't Give Up
EXTD=
EXTT0=
EXTT1=
EXTT2=
EXTT3=
EXTT4=
EXTT5=
EXTT6=
EXTT7=
EXTT8=
EXTT9=
EXTT10=
EXTT11=
EXTT12=
EXTT13=
EXTT14=
EXTT15=
PLAYORDER=
